<?xml version="1.0" standalone="no"?>
<!DOCTYPE svg PUBLIC "-//W3C//DTD SVG 20010904//EN"
 "http://www.w3.org/TR/2001/REC-SVG-20010904/DTD/svg10.dtd">
<svg version="1.0" xmlns="http://www.w3.org/2000/svg"
 width="512.000000pt" height="512.000000pt" viewBox="0 0 512.000000 512.000000"
 preserveAspectRatio="xMidYMid meet">
<metadata>
Created by potrace 1.11, written by Peter Selinger 2001-2013
</metadata>
<g transform="translate(0.000000,512.000000) scale(0.100000,-0.100000)"
fill="#000000" stroke="none">
<path d="M0 2560 l0 -2560 2560 0 2560 0 0 2560 0 2560 -2560 0 -2560 0 0
-2560z m2810 969 c86 -21 238 -88 261 -116 11 -12 0 -39 -59 -159 l-73 -145
-27 21 c-99 76 -181 108 -300 116 -145 10 -257 -22 -368 -106 -65 -49 -137
-155 -170 -252 -34 -98 -44 -287 -20 -398 82 -387 459 -540 835 -339 57 31 76
37 82 27 5 -7 28 -71 51 -141 l43 -128 -25 -20 c-59 -45 -172 -89 -300 -115
-103 -21 -321 -15 -420 11 -289 77 -504 289 -597 592 -25 82 -27 100 -27 278
0 178 2 196 27 278 76 248 218 418 444 531 182 92 427 116 643 65z m1410 -1
c424 -102 687 -483 654 -948 -17 -252 -130 -485 -300 -624 l-63 -51 22 -35
c12 -19 58 -91 102 -160 45 -69 85 -131 89 -137 6 -10 -29 -13 -162 -13 l-170
0 -72 111 c-64 98 -75 110 -95 105 -138 -35 -341 -31 -479 9 -165 48 -280 118
-398 243 -156 166 -230 365 -231 622 -1 264 74 467 236 636 218 230 542 320
867 242z m-3418 -278 c93 -151 179 -293 192 -314 l23 -39 70 114 c39 63 126
205 193 317 l123 202 194 0 195 0 -19 -30 c-19 -32 -98 -154 -407 -634 l-186
-288 0 -404 0 -404 -165 0 -165 0 0 410 0 411 -93 142 c-51 78 -128 197 -172
265 -44 67 -136 209 -205 315 -69 105 -129 198 -134 205 -6 10 32 12 190 10
l198 -3 168 -275z"/>
<path d="M3890 3243 c-89 -14 -217 -80 -277 -144 -48 -51 -101 -145 -126 -224
-18 -59 -22 -93 -22 -220 1 -137 3 -157 28 -232 51 -153 156 -270 291 -326 72
-29 217 -54 258 -44 l27 7 -74 122 c-41 67 -75 126 -75 130 0 4 74 8 165 8
l165 0 40 -62 c22 -35 42 -67 44 -73 9 -19 105 95 136 160 48 101 63 188 57
345 -3 92 -10 151 -22 185 -69 197 -205 327 -383 364 -50 10 -178 13 -232 4z"/>
</g>
</svg>
